<?xml version="1.0" encoding="UTF-8"?>
<!DOCTYPE svg PUBLIC "-//W3C//DTD SVG 1.1//EN" "http://www.w3.org/Graphics/SVG/1.1/DTD/svg11.dtd">
<!-- Creator: CorelDRAW 2020 (64-Bit) -->
<svg xmlns="http://www.w3.org/2000/svg" xml:space="preserve" width="100px" height="74px" version="1.1" style="shape-rendering:geometricPrecision; text-rendering:geometricPrecision; image-rendering:optimizeQuality; fill-rule:evenodd; clip-rule:evenodd"
viewBox="0 0 9.59 7.14"
 xmlns:xlink="http://www.w3.org/1999/xlink"
 xmlns:xodm="http://www.corel.com/coreldraw/odm/2003">
 <defs>
  <style type="text/css">
   <![CDATA[
    .fil0 {fill:#FCF8E5}
   ]]>
  </style>
 </defs>
 <g id="Layer_x0020_1">
  <metadata id="CorelCorpID_0Corel-Layer"/>
  <g id="_2135027296256">
   <path class="fil0" d="M3.98 2.65l1.65 0 0.01 0.32 -1.66 0 0 -0.32zm-3.1 0.03l0.17 0.01 0 0.33 -0.57 0.01c-0.01,0.14 -0.01,0.15 0.09,0.21 0.09,0.06 0.08,0.08 0.22,0.08l4.02 0c0.76,0 1.53,0 2.3,-0.01l1.73 0.01c0.11,-0.01 0.13,-0.04 0.21,-0.09 0.1,-0.07 0.08,-0.06 0.08,-0.21l-0.58 0 0.01 -0.33 0.16 -0.01 -0.01 -0.24 -2.46 0.01 0 0.34c0.37,0.04 1.4,-0.06 1.65,0.02 0.08,0.26 -0.11,0.21 -0.31,0.21 -0.43,0 -1.24,0.02 -1.59,0l0 -0.7 -2.39 0.01 -0.01 0.69 -1.62 0c-0.19,0 -0.37,0.04 -0.29,-0.2 0.15,-0.05 1.39,-0.03 1.66,-0.03 0.03,-0.1 0.01,-0.24 0,-0.35l-2.47 0.01 0 0.23z"/>
   <path class="fil0" d="M0.86 3.92l4.65 0c1.02,0 2.26,0.02 3.23,0l-0.01 -0.36c-2.58,-0.03 -5.27,0 -7.87,0l0 0.36z"/>
   <path class="fil0" d="M1 6.82c-0.43,0.01 -0.93,-0.11 -1,0.32l1.41 -0.01 0 -2.92c-0.07,-0.08 -0.17,-0.13 -0.3,-0.08 -0.14,0.05 -0.12,0.13 -0.12,0.29l0.01 2.4z"/>
   <path class="fil0" d="M8.2 7.14l1.39 0c-0.11,-0.42 -0.53,-0.31 -0.98,-0.32l0 -2.62c-0.13,-0.13 -0.28,-0.1 -0.41,0l0 2.94z"/>
   <path class="fil0" d="M2.73 4.19c-0.09,-0.07 -0.19,-0.12 -0.32,-0.06 -0.15,0.08 -0.11,0.16 -0.11,0.35 0,0.79 -0.03,1.94 0,2.66l0.44 0 -0.01 -2.95z"/>
   <path class="fil0" d="M4.04 4.29c-0.01,-0.25 -0.42,-0.25 -0.43,0.02 -0.02,0.58 -0.01,1.42 0,2.02 0,0.21 -0.03,0.62 0,0.81l0.42 -0.01 0.01 -2.84z"/>
   <path class="fil0" d="M5.57 7.14l0.43 0c0.02,-0.3 0,-2.21 0,-2.66 0,-0.18 0.04,-0.28 -0.11,-0.35 -0.15,-0.06 -0.22,0 -0.32,0.06l0 2.95z"/>
   <path class="fil0" d="M6.88 7.13l0.42 0 0.01 -2.93c-0.07,-0.04 -0.14,-0.1 -0.24,-0.09 -0.11,0 -0.15,0.06 -0.2,0.1l0.01 2.92z"/>
   <path class="fil0" d="M5.04 0.14c0,0.21 -0.02,0.35 -0.25,0.33 -0.21,-0.02 -0.22,-0.16 -0.21,-0.36l-0.22 -0.11c-0.01,0.2 0.02,0.16 0.04,0.22 0.03,0.06 -0.01,0.36 0.32,0.41l0 0.43 0.17 0.01 0 -0.43c0.12,-0.04 0.22,-0.11 0.27,-0.21l0.07 -0.42c-0.05,0.02 -0.17,0.06 -0.19,0.13z"/>
   <path class="fil0" d="M4.7 1.28c-0.03,0.1 -0.04,0.68 -0.01,0.78l0.23 0.01c0.02,-0.13 0.02,-0.69 -0.01,-0.79 -0.09,-0.05 -0.12,-0.05 -0.21,0z"/>
   <path class="fil0" d="M5.64 1.44c-0.06,0.15 -0.02,0.42 -0.03,0.62l0.24 0c-0.01,-0.48 0.08,-0.69 -0.21,-0.62z"/>
   <path class="fil0" d="M3.99 2.06c-0.01,-0.16 0.07,-0.65 -0.13,-0.63 -0.18,0.01 -0.11,0.48 -0.11,0.63l0.24 0z"/>
   <path class="fil0" d="M5.15 2.06l0.24 0c0,-0.12 0.01,-0.45 -0.01,-0.55 -0.02,-0.12 -0.23,-0.16 -0.23,0.1l0 0.14 0 0.31z"/>
   <path class="fil0" d="M4.45 2.06c0.01,-0.11 0.01,-0.25 0.01,-0.37 0,-0.11 0.03,-0.27 -0.12,-0.26 -0.14,0 -0.12,0.13 -0.12,0.26 0,0.12 -0.01,0.27 0.01,0.37l0.22 0z"/>
   <path class="fil0" d="M4.92 0.18c-0.03,-0.05 -0.07,-0.1 -0.14,-0.07 -0.06,0.01 -0.09,0.08 -0.08,0.15 0.03,0.11 0.22,0.12 0.22,-0.08z"/>
  </g>
 </g>
</svg>
