<?xml version="1.0" encoding="UTF-8"?>
<!DOCTYPE svg PUBLIC "-//W3C//DTD SVG 1.1//EN" "http://www.w3.org/Graphics/SVG/1.1/DTD/svg11.dtd">
<!-- Creator: CorelDRAW 2020 (64-Bit) -->
<svg xmlns="http://www.w3.org/2000/svg" xml:space="preserve" width="150px" height="261px" version="1.1" style="shape-rendering:geometricPrecision; text-rendering:geometricPrecision; image-rendering:optimizeQuality; fill-rule:evenodd; clip-rule:evenodd"
viewBox="0 0 7.68 13.35"
 xmlns:xlink="http://www.w3.org/1999/xlink"
 xmlns:xodm="http://www.corel.com/coreldraw/odm/2003">
 <defs>
  <style type="text/css">
   <![CDATA[
    .fil0 {fill:#0C2D54}
   ]]>
  </style>
 </defs>
 <g id="Layer_x0020_1">
  <metadata id="CorelCorpID_0Corel-Layer"/>
  <path class="fil0" d="M3.61 8.37l0.45 -0.02c0.08,0.27 0.14,0.56 0.21,0.82 0.06,0.26 0.18,0.56 0.23,0.8l-1.29 0.01c0.05,-0.28 0.12,-0.53 0.2,-0.8 0.06,-0.22 0.12,-0.62 0.2,-0.81zm-3.61 4.97l1.6 0c0.05,-0.09 0,-0.06 0.06,-0.12 -0.01,-0.45 0.42,-0.99 0.72,-1.26 0.37,-0.31 0.98,-0.53 1.46,-0.53 0.6,0 1.01,0.2 1.45,0.54 0.29,0.22 0.73,0.84 0.75,1.24l0.04 0.13 1.5 0.01c0.15,-0.02 0.05,0.01 0.1,-0.07 -0.3,-0.09 -1.77,-2.2 -1.87,-2.63 0.25,-0.02 0.47,-0.19 0.38,-0.45 -0.11,-0.3 -0.38,-0.21 -0.64,-0.22 -0.26,-0.42 -0.56,-1.58 -0.68,-2.1 -0.31,-1.35 -0.5,-3.59 -0.55,-4.99 -0.01,-0.12 -0.04,-0.57 -0.02,-0.66 0.02,-0.1 0.22,-0.29 0.27,-0.44 0.11,-0.4 -0.15,-0.74 -0.49,-0.89 -0.04,-0.25 0.12,-0.9 -0.24,-0.9 -0.34,0 -0.19,0.49 -0.24,0.9 -0.16,0.1 -0.15,0.06 -0.3,0.21 -0.52,0.55 0.07,1.06 0.08,1.09 -0.01,0.72 -0.07,1.43 -0.11,2.15l-0.2 2.06c-0.09,0.61 -0.2,1.3 -0.36,1.89 -0.08,0.34 -0.39,1.45 -0.59,1.68 -0.21,0 -0.55,-0.05 -0.63,0.21 -0.09,0.29 0.14,0.42 0.37,0.47 -0.2,0.61 -1.33,2.22 -1.86,2.68z"/>
 </g>
</svg>
