<?xml version="1.0" encoding="UTF-8"?>
<!DOCTYPE svg PUBLIC "-//W3C//DTD SVG 1.1//EN" "http://www.w3.org/Graphics/SVG/1.1/DTD/svg11.dtd">
<!-- Creator: CorelDRAW 2020 (64-Bit) -->
<svg xmlns="http://www.w3.org/2000/svg" xml:space="preserve" width="72px" height="200px" version="1.1" style="shape-rendering:geometricPrecision; text-rendering:geometricPrecision; image-rendering:optimizeQuality; fill-rule:evenodd; clip-rule:evenodd"
viewBox="0 0 4.34 12.1"
 xmlns:xlink="http://www.w3.org/1999/xlink"
 xmlns:xodm="http://www.corel.com/coreldraw/odm/2003">
 <defs>
  <style type="text/css">
   <![CDATA[
    .fil0 {fill:#B43138}
   ]]>
  </style>
 </defs>
 <g id="Layer_x0020_1">
  <metadata id="CorelCorpID_0Corel-Layer"/>
  <g id="_2135027604464">
   <path class="fil0" d="M2.43 9.58l0.42 0 -0.01 1.72 -0.42 0 0.01 -1.72zm-0.93 0l0.42 0 0 1.72 -0.42 0 0 -1.48 0 -0.24zm0.93 -2.11l0.42 0 0 1.64 -0.43 0.01 0.01 -1.65zm-0.93 0l0.42 0 0 1.65 -0.42 -0.01 0 -1.64zm0.52 -2.45c0.25,-0.06 0.49,0.02 0.65,0.15 0.56,0.44 0.36,1.35 -0.32,1.49 -1.03,0.21 -1.49,-1.39 -0.33,-1.64zm-0.5 -0.95l0.4 0 0 0.49 -0.41 0 0.01 -0.49zm0.91 0l0.41 0 0 0.49 -0.42 0 0.01 -0.49zm-0.49 -1.5l0.47 0 0 0.47 -0.47 0 0 -0.22 0 -0.25zm-1.94 9.26c-0.04,0.31 0.3,0.26 0.54,0.26l3.25 0c0.2,0 0.6,0.09 0.55,-0.26 -0.04,-0.24 -0.36,-0.16 -0.65,-0.17l0 -4.36c0.09,-0.07 0.21,-0.05 0.22,-0.24 0.02,-0.17 -0.08,-0.2 -0.22,-0.23 0,-0.26 -0.02,-2.01 0.01,-2.1 0.02,-0.02 0.21,-0.01 0.22,-0.25 0,-0.16 -0.11,-0.18 -0.23,-0.22 0,-0.13 0.03,-0.32 -0.06,-0.39 -0.14,-0.1 -0.23,0.01 -0.28,0.12 -0.08,-0.17 -0.14,-0.54 -0.23,-0.68l-0.24 0c-0.02,-0.13 0,-0.26 -0.02,-0.39 -0.01,-0.13 -0.04,-0.2 -0.03,-0.35 0.1,-0.07 0.23,-0.1 0.2,-0.3 -0.03,-0.16 -0.15,-0.16 -0.31,-0.19 -0.1,-0.34 -0.21,-0.68 -0.3,-1.03 -0.15,-0.54 0.09,-1.04 -0.24,-1.05 -0.32,-0.01 -0.17,0.57 -0.18,0.79l-0.37 1.3c-0.17,0.02 -0.29,0.02 -0.31,0.2 -0.04,0.27 0.18,0.22 0.2,0.3 0,0.14 -0.02,0.23 -0.03,0.36 -0.01,0.11 0.01,0.24 0,0.36l-0.27 0.01c-0.06,0.1 -0.17,0.55 -0.21,0.68 -0.03,-0.05 -0.05,-0.11 -0.12,-0.15 -0.28,-0.13 -0.23,0.35 -0.24,0.41 0,0 -0.01,0.01 -0.01,0.01 -0.06,0.02 -0.12,0.03 -0.16,0.06 -0.05,0.05 -0.16,0.33 0.17,0.39 0.02,0.24 0.03,2.03 -0.01,2.11 -0.09,0.06 -0.22,0.02 -0.22,0.23 0.01,0.18 0.11,0.18 0.23,0.24 0.01,0.03 0.04,4.15 0.01,4.36 -0.23,0.02 -0.62,-0.08 -0.66,0.17z"/>
   <path class="fil0" d="M2.32 5.66c0,-0.1 0.02,-0.34 -0.03,-0.42 -0.07,-0.12 -0.23,-0.06 -0.25,0.07 -0.02,0.13 0.03,0.32 -0.04,0.42 -0.03,0.05 -0.05,0.07 -0.03,0.16 0.06,0.2 0.3,0.09 0.3,0.09 0.12,-0.03 0.49,0.05 0.59,-0.05 0.09,-0.09 0.02,-0.25 -0.11,-0.26 -0.12,-0.02 -0.3,0 -0.43,-0.01z"/>
  </g>
 </g>
</svg>
