<?xml version="1.0" encoding="UTF-8"?>
<!DOCTYPE svg PUBLIC "-//W3C//DTD SVG 1.1//EN" "http://www.w3.org/Graphics/SVG/1.1/DTD/svg11.dtd">
<!-- Creator: CorelDRAW 2020 (64-Bit) -->
<svg xmlns="http://www.w3.org/2000/svg" xml:space="preserve" width="150px" height="310px" version="1.1" style="shape-rendering:geometricPrecision; text-rendering:geometricPrecision; image-rendering:optimizeQuality; fill-rule:evenodd; clip-rule:evenodd"
viewBox="0 0 6.72 13.87"
 xmlns:xlink="http://www.w3.org/1999/xlink"
 xmlns:xodm="http://www.corel.com/coreldraw/odm/2003">
 <defs>
  <style type="text/css">
   <![CDATA[
    .fil0 {fill:#02181A}
   ]]>
  </style>
 </defs>
 <g id="Layer_x0020_1">
  <metadata id="CorelCorpID_0Corel-Layer"/>
  <g id="_2135058223760">
   <path class="fil0" d="M3.53 0.35c0.23,0.16 0.44,-0.06 0.64,0.02 0.37,0.14 0.41,-0.1 0.64,0 0.15,0.06 0.71,0.69 0.8,0.79 0.31,0.32 0.4,0.64 0.23,1.19 -0.08,0.26 -0.26,0.56 -0.47,0.71 -0.08,0.06 -0.19,0.09 -0.27,0.14 0.04,0.23 0.42,0.67 0.23,0.79 -0.2,0.12 -1.3,-0.77 -1.85,-0.26 -0.19,0.18 -0.32,0.54 -0.45,0.79 -0.38,0.71 -0.55,0.86 -1.16,1.35 -0.26,0.21 -1.91,1.56 -1.87,1.89 0.31,0.03 0.41,-0.34 0.62,-0.37 -0.02,0.07 -0.29,0.6 0.03,0.44 0.23,-0.12 0.34,-0.75 0.5,-0.89 0.24,-0.24 1.06,-0.6 1.45,-0.89 0.38,-0.27 0.6,-0.66 0.84,-0.93 0.05,-0.05 0.04,-0.05 0.07,-0.11 0.06,-0.1 0.12,-0.15 0.18,-0.23 0.24,-0.28 0.49,-0.03 0.72,0.2 0.07,0.08 0.11,0.15 0.16,0.25 0.65,1.22 -1.01,0.96 -0.94,2.73 0.01,0.26 0.07,0.5 0.05,0.74 -0.51,0.39 -0.97,0.65 -1.83,0.57 -0.33,-0.03 -0.67,-0.16 -0.91,-0.3 -0.24,-0.13 -0.34,-0.22 -0.49,-0.42 -0.4,-0.53 -0.45,0.84 -0.42,1.09 0.05,0.39 0.31,0.64 0.67,0.76 0.83,0.27 1.76,-0.1 2.36,-0.39 0.81,-0.39 1.37,-1.04 1.9,-1.71l0.29 -0.43c0.27,-0.46 0.32,-0.78 0.44,-1.01 0.01,0.01 0.01,0.01 0.01,0.02 0.01,0.03 0.05,0 0.02,0.25 -0.18,1.19 -0.69,2.2 -1.48,3.1 -0.34,0.4 -0.88,0.79 -1.36,1.06 -0.49,0.26 -0.8,0.36 -1.34,0.48 -0.31,0.07 -0.66,-0.07 -0.61,0.18 0.01,0.01 0.06,0.1 0.06,0.11 0.06,0.08 0.09,0.12 0.14,0.19 0.67,0.82 1.41,0.84 2.3,0.34 0.17,-0.1 0.29,-0.17 0.41,-0.26 0.03,-0.03 0.06,-0.05 0.09,-0.08l0.26 -0.23c0.39,-0.4 0.87,-1.04 1.09,-1.56 0.07,-0.17 0.14,-0.23 0.22,-0.44 0.14,-0.41 0.17,-0.35 0.34,-0.98 0.02,-0.09 0.05,-0.19 0.06,-0.26 0.02,-0.1 0.02,-0.2 0.1,-0.23 0.08,0.06 0.05,0.14 0.05,0.38 -0.01,0.15 -0.02,0.28 -0.02,0.44 -0.02,0.29 -0.05,0.56 -0.09,0.84 -0.16,0.96 -0.47,1.9 -1.07,2.63 -0.14,0.17 -0.28,0.32 -0.45,0.46 -0.25,0.22 -0.47,0.28 -0.49,0.45 0.23,0.25 1.46,0.12 2.09,-0.43 1.02,-0.88 0.68,-3.3 0.48,-4.56 -0.07,-0.4 -0.16,-0.77 -0.23,-1.15 -0.19,-1.1 -0.45,-0.99 -0.15,-2.33 0.44,-2 -0.5,-0.69 0.1,-2.16 0.13,-0.31 0.24,-0.72 0.31,-1.08 0.09,-0.56 0.08,-0.71 -0.27,-1 -0.26,-0.21 -0.51,-0.41 -0.77,-0.61 -0.77,-0.57 -0.88,-0.49 -1.77,-0.23 -0.13,0.03 -0.19,0.03 -0.19,0.15z"/>
   <path class="fil0" d="M3.38 1.91c-0.54,0.13 -0.36,0.86 0.14,0.91 0.29,0.03 0.28,-0.07 0.44,-0.15l-0.01 0.63c0.28,0.02 0.71,0.13 0.72,-0.02 0,-0.07 -0.06,-0.17 -0.08,-0.25 -0.21,-0.71 0.29,-0.4 0.55,-0.61 0.01,-0.3 -0.09,-0.26 0.03,-0.6 -0.07,-0.06 -0.16,-0.11 -0.24,-0.18 -0.13,-0.11 -0.08,-0.12 -0.14,-0.29 -0.15,-0.41 -0.86,-0.39 -1.19,-0.09 -0.19,0.17 -0.19,0.34 -0.22,0.65z"/>
  </g>
 </g>
</svg>
